<svg xmlns="http://www.w3.org/2000/svg" viewBox="0 0 32 32"><path d="M16 3C8.832 3 3 8.832 3 16s5.832 13 13 13 13-5.832 13-13S23.168 3 16 3zm0 2c6.086 0 11 4.914 11 11s-4.914 11-11 11S5 22.086 5 16 9.914 5 16 5zm0 3c-4.758.84-9 5.227-9 10 2.328-4.11 3.883-4.406 4.313-4.406.43 0 .656.222.656.719v6.124c0 .762-1.48.637-1.969.563 1.809 2.691 6 3 6 3l2-2 2 1c3.156-1.445 5-4.54 5-5-1.371 1.512-2.734 2-3 2s-1-.137-1-.5v-7.25c0-.629 1.453-2.55 2-3.25-3.61.945-4.656 2.594-4.656 2.594S18.07 11 17 11c.398.344 1 1.273 1 2v6.125S16.695 20 16 20c-.695 0-1.031-.281-1.031-.813 0-.53.031-7.187.031-7.187s-1 .367-1-1.688C14 9.286 16 8 16 8z" fill="#FFF"/></svg>